<?xml version="1.0" encoding="UTF-8" standalone="no"?>
<!-- Created with Inkscape (http://www.inkscape.org/) -->

<svg
   width="210mm"
   height="297mm"
   viewBox="0 0 210 297"
   version="1.1"
   id="svg5"
   inkscape:version="1.2.2 (b0a84865, 2022-12-01)"
   sodipodi:docname="stickGuyDead.svg"
   inkscape:export-filename="stickGuyDead.svg"
   inkscape:export-xdpi="96"
   inkscape:export-ydpi="96"
   xmlns:inkscape="http://www.inkscape.org/namespaces/inkscape"
   xmlns:sodipodi="http://sodipodi.sourceforge.net/DTD/sodipodi-0.dtd"
   xmlns="http://www.w3.org/2000/svg"
   xmlns:svg="http://www.w3.org/2000/svg">
  <sodipodi:namedview
     id="namedview7"
     pagecolor="#ffffff"
     bordercolor="#999999"
     borderopacity="1"
     inkscape:showpageshadow="0"
     inkscape:pageopacity="0"
     inkscape:pagecheckerboard="0"
     inkscape:deskcolor="#d1d1d1"
     inkscape:document-units="mm"
     showgrid="false"
     inkscape:zoom="0.914906"
     inkscape:cx="178.70688"
     inkscape:cy="571.09692"
     inkscape:window-width="1720"
     inkscape:window-height="1387"
     inkscape:window-x="0"
     inkscape:window-y="25"
     inkscape:window-maximized="0"
     inkscape:current-layer="layer1" />
  <defs
     id="defs2" />
  <g
     inkscape:label="Layer 1"
     inkscape:groupmode="layer"
     id="layer1">
    <ellipse
       style="fill:#000000;fill-opacity:0;stroke:#000000;stroke-width:1;stroke-dasharray:none;stroke-opacity:1"
       id="path162"
       cx="99.915764"
       cy="65.068161"
       rx="20.966406"
       ry="20.243427"
       inkscape:export-filename="hangManGuyExported2.svg"
       inkscape:export-xdpi="96"
       inkscape:export-ydpi="96" />
    <path
       style="fill:#000000;fill-opacity:0;stroke:#000000;stroke-width:1;stroke-dasharray:none;stroke-opacity:1"
       d="m 100.63875,85.60078 -0.57838,58.99512"
       id="path7945" />
    <path
       style="fill:#000000;fill-opacity:0;stroke:#000000;stroke-width:1;stroke-dasharray:none;stroke-opacity:1"
       d="m 92.541383,75.768255 c 0,0 1.445958,-5.494644 7.808177,-5.205452 6.36222,0.289193 7.80818,5.783837 7.80818,5.783837"
       id="path8896" />
    <path
       style="fill:#000000;fill-opacity:0;stroke:#000000;stroke-width:1;stroke-dasharray:none;stroke-opacity:1"
       d="M 99.771178,104.97663 72.297953,91.962998"
       id="path10509" />
    <path
       style="fill:#000000;fill-opacity:0;stroke:#000000;stroke-width:1;stroke-dasharray:none;stroke-opacity:1"
       d="m 101.21714,104.68744 28.62999,-8.386564"
       id="path10527" />
    <path
       style="fill:#000000;fill-opacity:0;stroke:#000000;stroke-width:1;stroke-dasharray:none;stroke-opacity:1"
       d="M 99.192793,145.17429 79.238559,171.77994"
       id="path10529" />
    <path
       style="fill:#000000;fill-opacity:0;stroke:#000000;stroke-width:1;stroke-dasharray:none;stroke-opacity:1"
       d="m 100.63875,145.46348 15.90555,26.31646"
       id="path10531" />
    <path
       style="fill:#ff0000;stroke-width:0.264583"
       id="path308"
       d="m 94.51864,55.025276 c -0.863036,0.863037 -1.726073,1.726073 -2.589109,2.589109 -0.811943,0.858764 -1.564457,1.771412 -2.314054,2.684219 0.385585,-0.54928 0.112014,-0.227618 1.614985,0.568143 0.04887,0.02588 -0.03176,0.17481 0.02254,0.164356 0.0092,-0.0019 0.2756,-0.540035 0.294801,-0.570888 0.281879,-0.539176 0.625134,-1.035834 0.978217,-1.528803 0.402683,-0.480316 0.587502,-1.051292 0.688457,-1.659421 0.06183,-0.75025 -0.43678,-1.301409 -0.823159,-1.888154 -0.471834,-0.686493 -1.06304,-1.161854 -1.831932,-1.472015 -0.224023,-0.07263 -1.438775,-0.350988 -1.586278,-0.101902 -0.832159,1.405237 -0.765876,1.20541 -0.06651,1.916782 0.380248,0.192408 0.723312,0.430401 1.047096,0.7053 0.520885,0.438005 1.069573,0.832414 1.652804,1.183966 0.635755,0.289911 1.164561,0.744691 1.780101,1.071718 0.452372,0.288179 0.838965,0.651992 1.24065,1.00379 0.267216,0.355044 0.460822,0.751795 0.673224,1.139478 0.05971,0.09417 0.119412,0.18833 0.179121,0.282493 0.765664,1.189016 2.447186,0.106201 1.681519,-1.082813 v 0 c -0.03631,-0.05495 -0.07263,-0.1099 -0.108942,-0.164848 -0.326398,-0.587883 -0.623292,-1.197303 -1.107228,-1.678866 -0.525169,-0.459944 -1.040982,-0.929727 -1.649725,-1.280919 -0.588809,-0.273389 -1.04902,-0.774568 -1.663091,-1.007034 -0.494298,-0.291552 -0.95177,-0.627607 -1.390256,-0.996865 -0.369401,-0.30915 -0.753615,-0.610947 -1.192332,-0.816642 0.438762,0.624446 0.379921,0.37319 -0.386604,1.601729 -0.07008,0.112319 -0.574719,-0.05095 -0.0032,0.05783 0.0706,0.01344 0.140645,0.02967 0.210966,0.04451 0.387197,0.09441 0.605705,0.398497 0.850231,0.694272 0.105227,0.159793 0.209415,0.320276 0.315523,0.479489 0.358315,0.537633 0.11416,0.227565 0.203372,-0.0089 -0.0497,0.326898 -0.101354,0.557522 -0.340463,0.81339 -0.383072,0.536213 -0.756827,1.076455 -1.065004,1.660846 -0.10854,0.183866 -0.784817,1.404876 -0.598286,1.588336 1.280681,1.259586 1.211215,1.128707 1.926566,0.549015 0.705334,-0.863645 1.419799,-1.722027 2.181069,-2.537357 0.863037,-0.863036 1.726073,-1.726072 2.589109,-2.589109 0.999998,-1 -0.414215,-2.414214 -1.414213,-1.414214 z" />
    <path
       style="fill:#ff0000;stroke-width:0.264583"
       id="path312"
       d="m 109.91273,56.953911 c -0.68402,0.637739 -1.29633,1.34434 -1.95544,2.00759 -0.47143,0.504904 -0.95572,0.994899 -1.4552,1.472562 -0.54069,0.412729 -1.04548,0.870199 -1.51248,1.364483 -0.46781,0.411998 -1.07283,0.809823 -0.86336,1.583169 0.0763,0.281778 0.35608,0.462713 0.53412,0.69407 0.98952,0.353135 1.82979,0.0033 2.68674,-0.499887 0.45983,-0.335968 0.91311,-0.668266 1.38738,-0.981144 0.51977,-0.342569 1.09351,-0.705371 1.45279,-1.229982 0.10108,-0.147603 0.17312,-0.313129 0.25968,-0.469694 0.42502,-1.088337 -0.004,-1.809144 -0.90948,-2.40698 -0.46534,-0.233323 -0.92706,-0.473731 -1.36804,-0.751705 -0.3966,-0.228148 -0.73614,-0.53059 -1.08819,-0.818767 -0.39003,-0.413435 -0.91356,-0.652933 -1.44416,-0.827976 -1.00753,-0.28819 -1.15746,0.243792 -1.3066,1.50658 -0.0147,0.124343 0.87776,0.889804 1.00083,1.000236 0.79242,0.706638 1.64878,1.328388 2.43482,2.042284 0.66029,0.648028 1.44274,1.151017 2.13933,1.754185 0.4778,0.306631 0.92592,0.652814 1.3958,0.971211 0.29003,0.150477 0.58023,0.370176 0.81437,0.557438 0.18013,0.173413 0.37961,0.317272 0.58351,0.46079 1.17085,0.793155 2.29254,-0.862687 1.12168,-1.655842 v 0 c -0.11471,-0.06899 -0.21302,-0.155535 -0.31461,-0.242411 -0.33218,-0.295807 -0.6941,-0.559636 -1.08364,-0.776071 -0.4097,-0.277159 -0.79538,-0.58829 -1.22214,-0.839271 -0.68995,-0.57916 -1.43601,-1.090152 -2.09118,-1.711928 -0.79002,-0.714714 -1.64247,-1.346155 -2.44229,-2.049021 -0.1096,-0.09832 -0.21937,-0.196445 -0.32879,-0.294965 -0.60232,-0.542314 -0.18586,-0.273577 -0.24282,-0.157499 -0.22073,0.449818 -0.36052,0.958313 -0.69101,1.334929 -0.0792,0.0903 -0.68689,-0.07955 -0.38269,0.0024 0.31081,0.09673 0.58151,0.219686 0.79789,0.476832 0.41964,0.337902 0.82542,0.694277 1.29421,0.965647 0.44428,0.273508 0.89938,0.533183 1.37199,0.754147 0.0521,0.02408 0.14169,0.132628 0.15436,0.0766 0.004,-0.01685 -0.0913,-0.441614 0.0176,-0.326835 0.0203,0.02141 -0.008,0.05844 -0.0124,0.08767 0.0257,0.276783 -0.8034,0.756603 -1.02274,0.905658 -0.43869,0.300241 -0.88031,0.589725 -1.29577,0.923388 -0.19739,0.118782 -0.39239,0.245703 -0.60903,0.327647 -0.17906,0.06773 -0.27768,0.06022 -0.27646,0.06143 0.0798,0.07922 0.20147,0.09981 0.30222,0.149707 0.11274,0.189291 0.30606,0.349911 0.33824,0.567872 0.0332,0.22501 -0.0781,0.450631 -0.15633,0.664192 -0.0196,0.05344 -0.17446,0.145978 -0.12832,0.112646 0.23307,-0.168389 0.43511,-0.380209 0.64928,-0.570367 0.44125,-0.471845 0.9326,-0.888172 1.43799,-1.289371 0.51174,-0.489426 1.00745,-0.992415 1.49169,-1.50836 0.61496,-0.619117 1.19234,-1.272016 1.817,-1.880754 1.08643,-0.905356 -0.19394,-2.441799 -1.28037,-1.536443 z" />
  </g>
</svg>
